<?xml version="1.0" encoding="utf-8"?>
<!-- Generator: Adobe Illustrator 24.3.0, SVG Export Plug-In . SVG Version: 6.00 Build 0)  -->
<svg version="1.1" id="Camada_1" xmlns="http://www.w3.org/2000/svg" xmlns:xlink="http://www.w3.org/1999/xlink" x="0px" y="0px"
	 viewBox="0 0 560 288" style="enable-background:new 0 0 560 288;" xml:space="preserve">
<style type="text/css">
	.st0{fill-rule:evenodd;clip-rule:evenodd;fill:#A625E2;}
	.st1{fill-rule:evenodd;clip-rule:evenodd;fill:#6D039E;}
</style>
<path class="st0" d="M266,149.8l-48.3-20.4c-1-0.4-1.5-1.2-1.5-2l-0.1-13.7c0-0.8,0.6-1.6,1.5-2l15.9-6.9c0.9-0.4,2.1-0.4,3.1,0
	l15.9,6.8c0.9,0.4,1.5,1.2,1.5,2v10.8c0,0.8,0.6,1.6,1.5,2c0.9,0.4,2.1,0.4,3.1,0L289,113c1.9-0.8,3.1-2.3,3.1-4V98.3
	c0-1.7-1.2-3.2-3.1-4l-50.6-21.7c-1.9-0.8-4.2-0.8-6.2,0l-50.7,22.1c-1.9,0.8-3.1,2.3-3.1,4l0.2,43.9c0,1.7,1.2,3.2,3.1,4l52.2,20.7
	"/>
<path class="st1" d="M182.9,187.8c-1.9,0.8-3,2.3-3,4l-0.2,10.8c0,1.7,1.1,3.2,2.9,4.1l49.1,22.6c1.9,0.8,4.1,0.9,6,0.1l49.9-22.1
	c1.9-0.8,3-2.3,3.1-4l0.5-38.6c0-1.7-1.1-3.2-3-4.1L266,149.8c-4.3,2-32,17.5-32,17.5c6.7,2.7,20.5,8.4,20.5,9.2l-0.2,11.2
	c0,0.8-0.6,1.6-1.5,2l-15.7,6.9c-0.9,0.4-2.1,0.4-3,0l-15.5-7.1c-0.9-0.4-1.5-1.2-1.5-2l0.2-11c0-0.8-0.6-1.6-1.5-2.1
	c-0.9-0.4-2.1-0.4-3,0L182.9,187.8z"/>
<path class="st1" d="M114.6,138.6c12.5,28.6,30.7,57.6,44.6,84.3c0.3,0.6,0,1.5-0.6,1.5c-8.5,0.1-17.6,1-25.5,0.5
	c-2.8-0.2-5.3-2.1-6.8-5.2c-5.9-12.3-11.8-24.6-17.7-36.9c-2.8-5-3.5-11.5-1.8-17.3"/>
<path class="st0" d="M119.1,81.8c4.4-6,10.2-9.5,16.4-9.6c8.4-0.1,19.8-0.2,19.5,0.1c-7.1,10.2-17.4,30.7-32.8,71.2
	c-2,5.3-3.8,11.4-5.4,19.6c-2.7,13-2,26.8,1.7,39.3l0.2,0.6c0.1,0.3-0.3,0.5-0.5,0.2c-2.9-6-15.7-32-23.4-47.7
	c-0.5-0.9-1.1-2.2-1.6-3.9c0,0-0.5-1.8-0.8-3.4c-0.7-3.9,0-7.7,0.5-9.8c0.9-4.4,2.4-7.8,3.7-10.2"/>
<path class="st1" d="M360.2,159.8c-12.5-28.6-30.7-57.6-44.6-84.3c-0.3-0.6,0-1.5,0.6-1.5c8.5-0.1,17.6-1,25.5-0.5
	c2.8,0.2,5.3,2.1,6.8,5.2c5.9,12.3,11.8,24.6,17.7,36.9c2.8,5,3.5,11.5,1.8,17.3"/>
<path class="st0" d="M355.7,216.6c-4.4,6-10.2,9.5-16.4,9.6c-8.4,0.1-19.8,0.2-19.5-0.1c7.1-10.2,17.4-30.7,32.8-71.2
	c2-5.3,3.8-11.4,5.4-19.6c2.7-13,2-26.8-1.7-39.3l-0.2-0.6c-0.1-0.3,0.3-0.5,0.5-0.2c2.9,6,15.7,32,23.4,47.7
	c0.5,0.9,1.1,2.2,1.6,3.9c0,0,0.5,1.8,0.8,3.4c0.7,3.9,0,7.7-0.5,9.8c-0.9,4.4-2.4,7.8-3.7,10.2"/>
</svg>
