<?xml version="1.0" encoding="utf-8"?>
<!-- Generator: Adobe Illustrator 24.3.0, SVG Export Plug-In . SVG Version: 6.00 Build 0)  -->
<svg version="1.1" id="Layer_2_1_" xmlns="http://www.w3.org/2000/svg" xmlns:xlink="http://www.w3.org/1999/xlink" x="0px" y="0px"
	 viewBox="0 0 841.9 595.3" style="enable-background:new 0 0 841.9 595.3;" xml:space="preserve">
<style type="text/css">
	.st0{fill:#61DAFB;}
	.st1{fill:none;}
	.st2{font-family:'Arial-Black';}
	.st3{font-size:120px;}
</style>
<g>
	<path class="st0" d="M637,217.4c0-26.8-35.8-52.3-90.8-68c12.7-52.5,7-94.3-17.8-107.7c-5.7-3.1-12.4-4.6-19.7-4.6v18.4
		c4.1,0,7.3,0.7,10,2.1c12,6.4,17.2,31,13.1,62.5c-1,7.8-2.6,15.9-4.5,24.3c-17.3-4-36.1-7-55.9-9c-11.9-15.3-24.2-29.2-36.6-41.3
		c28.7-25,55.7-38.7,74-38.7V37l0,0c-24.2,0-55.9,16.2-88,44.3c-32.1-27.9-63.8-43.9-88-43.9v18.4c18.2,0,45.3,13.6,74,38.5
		c-12.3,12.1-24.7,25.9-36.4,41.2c-19.9,2-38.7,5-56,9.1c-2-8.3-3.5-16.3-4.6-23.9c-4.1-31.5,1-56.1,12.9-62.6
		c2.6-1.5,6.1-2.1,10.1-2.1V37.4l0,0c-7.4,0-14.1,1.5-19.9,4.6c-24.7,13.4-30.3,55.1-17.5,107.4c-54.8,15.9-90.4,41.2-90.4,68
		c0,26.8,35.8,52.3,90.8,68c-12.7,52.5-7,94.3,17.8,107.7c5.7,3.1,12.4,4.6,19.8,4.6c24.2,0,55.9-16.2,88-44.3
		c32.1,27.9,63.8,43.9,88,43.9c7.4,0,14.1-1.5,19.9-4.6c24.7-13.4,30.3-55.1,17.5-107.4C601.3,269.6,637,244.2,637,217.4z
		 M522.3,162.3c-3.3,10.7-7.3,21.6-11.9,32.6c-3.6-6.6-7.4-13.2-11.5-19.8c-4.1-6.6-8.4-13-12.7-19.3
		C498.7,157.5,510.8,159.7,522.3,162.3z M482,250.3c-6.9,11.1-13.9,21.7-21.2,31.5c-13.1,1.1-26.4,1.7-39.8,1.7
		c-13.3,0-26.6-0.6-39.6-1.6c-7.3-9.8-14.4-20.3-21.3-31.4c-6.7-10.8-12.8-21.8-18.3-32.9c5.5-11.1,11.6-22.1,18.2-33
		c6.9-11.1,13.9-21.7,21.2-31.5c13.1-1.1,26.4-1.7,39.8-1.7c13.3,0,26.6,0.6,39.6,1.6c7.3,9.8,14.4,20.3,21.3,31.4
		c6.7,10.8,12.8,21.8,18.3,32.9C494.7,228.4,488.6,239.5,482,250.3z M510.4,239.5c4.8,11.1,8.8,22.1,12.2,32.9
		c-11.5,2.6-23.7,4.9-36.3,6.6c4.3-6.4,8.6-12.9,12.7-19.6C503,252.8,506.8,246.1,510.4,239.5z M421.1,327.7
		c-8.2-7.9-16.4-16.8-24.5-26.4c7.9,0.3,16,0.6,24.2,0.6c8.3,0,16.5-0.2,24.5-0.6C437.4,310.9,429.2,319.7,421.1,327.7z M355.6,279
		c-12.5-1.7-24.6-3.9-36.1-6.5c3.3-10.7,7.3-21.6,11.9-32.6c3.6,6.6,7.4,13.2,11.5,19.8C347.1,266.3,351.3,272.7,355.6,279z
		 M420.7,107.2c8.2,7.9,16.4,16.8,24.5,26.4c-7.9-0.3-16-0.6-24.2-0.6c-8.3,0-16.5,0.2-24.5,0.6
		C404.4,123.9,412.6,115.1,420.7,107.2z M355.5,155.8c-4.3,6.4-8.6,12.9-12.7,19.6c-4.1,6.6-7.8,13.2-11.4,19.8
		c-4.8-11.1-8.8-22.1-12.2-32.9C330.8,159.8,342.9,157.5,355.5,155.8z M275.8,259.2c-31.2-12.5-51.3-28.8-51.3-41.8
		c0-13,20.2-29.4,51.3-41.8c7.6-3.1,15.9-5.8,24.4-8.3c5,16.2,11.6,33,19.8,50.3c-8.1,17.2-14.6,33.9-19.6,50
		C291.8,265.1,283.5,262.3,275.8,259.2z M323.2,377.2c-12-6.4-17.2-31-13.1-62.5c1-7.8,2.6-15.9,4.5-24.3c17.3,4,36.1,7,55.9,9
		c11.9,15.3,24.2,29.2,36.6,41.3c-28.7,25-55.7,38.7-74,38.7C329.2,379.4,325.8,378.6,323.2,377.2z M532.1,314.3
		c4.1,31.5-1,56.1-12.9,62.6c-2.6,1.5-6.1,2.1-10.1,2.1c-18.2,0-45.3-13.6-74-38.5c12.3-12.1,24.7-25.9,36.4-41.2
		c19.9-2,38.7-5,56-9.1C529.5,298.6,531.1,306.6,532.1,314.3z M566,259.2c-7.6,3.1-15.9,5.8-24.4,8.3c-5-16.2-11.6-33-19.8-50.3
		c8.1-17.2,14.6-33.9,19.6-50c8.7,2.6,17,5.4,24.7,8.4c31.2,12.5,51.3,28.8,51.3,41.8C617.3,230.4,597.2,246.8,566,259.2z"/>
	<path class="st0" d="M332.7,37.3L332.7,37.3L332.7,37.3z"/>
	<ellipse class="st0" cx="420.9" cy="217.4" rx="40.2" ry="37.7"/>
	<path class="st0" d="M508.6,37.1L508.6,37.1L508.6,37.1z"/>
</g>
<rect x="227.4" y="409" class="st1" width="387.2" height="95"/>
<text transform="matrix(1 0 0 1 227.3867 494.9365)" class="st0 st2 st3">React</text>
</svg>
